<svg width="200" height="200" viewBox="0 0 200 200" fill="none" xmlns="http://www.w3.org/2000/svg">
<rect x="2" y="2" width="196" height="196" rx="98" fill="black"/>
<rect x="2" y="2" width="196" height="196" rx="98" stroke="url(#paint0_linear_1_10)" stroke-width="4"/>
<path d="M50.3029 157.409C48.1842 157.35 46.4941 155.205 46.508 152.594L46.9531 69.0027C46.9647 68.4197 46.9945 67.8442 47.0315 67.2597C47.0636 66.9518 47.0981 66.632 47.1459 66.3214C48.1495 59.6176 52.9175 54.553 58.642 54.585C60.6492 54.5961 62.5281 55.2362 64.1691 56.34C64.1788 56.3489 64.1956 56.361 64.2041 56.361L64.7945 56.8055L67.1872 58.5594L70.2307 60.8088L69.8425 135.081C69.8162 140.017 67.7869 144.357 64.702 146.924C64.6289 146.978 64.5582 147.034 64.4935 147.099L52.5539 156.604C51.9489 157.092 51.2211 157.396 50.4426 157.409H50.3029Z" fill="url(#paint1_linear_1_10)"/>
<path d="M124.435 108.219V86.7365C124.435 84.8929 123.688 83.1205 122.351 81.7872L89.2373 48.7809C83.7693 43.3306 77.3074 38.1257 69.3878 37.9729C69.1121 37.9676 68.8286 37.9876 68.5559 38.0269C63.8368 38.7088 61.6303 39.3552 58.9887 41.3162C55.4758 43.9239 52.7495 47.4181 50.8676 51.2604C48.4784 56.1387 47.7673 60.1716 47.2152 66.7692C49.5149 59.6122 51.7283 56.5767 57.0073 55.5002C60.3862 54.8112 63.7536 56.364 66.1314 58.7482L117.931 110.69C120.275 113.04 124.435 111.46 124.435 108.219Z" fill="url(#paint2_linear_1_10)"/>
<path d="M149.7 38.1365C151.819 38.1947 153.509 40.3394 153.495 42.95L153.05 126.542C153.038 127.125 153.009 127.701 152.971 128.285C152.94 128.593 152.905 128.913 152.857 129.223C151.853 135.927 147.085 140.992 141.361 140.96C139.353 140.949 137.474 140.309 135.834 139.205C135.824 139.196 135.807 139.184 135.799 139.184L135.208 138.739L132.816 136.985L129.772 134.736L130.16 60.4637C130.187 55.5279 132.216 51.1881 135.301 48.62C135.374 48.5666 135.445 48.5102 135.509 48.4463L147.449 38.9403C148.054 38.4533 148.782 38.1493 149.56 38.1357L149.7 38.1365Z" fill="url(#paint3_linear_1_10)"/>
<path d="M75.5681 87.3255V108.808C75.5681 110.652 76.3143 112.424 77.6519 113.758L110.765 146.764C116.233 152.214 122.695 157.42 130.615 157.571C130.891 157.577 131.174 157.557 131.447 157.518C136.166 156.836 138.372 156.19 141.014 154.228C144.527 151.62 147.253 148.127 149.135 144.284C151.524 139.406 152.235 135.373 152.788 128.776C150.488 135.932 148.274 138.968 142.995 140.045C139.616 140.734 136.249 139.181 133.871 136.797L82.0715 84.855C79.7278 82.5049 75.5681 84.0849 75.5681 87.3255Z" fill="url(#paint4_linear_1_10)"/>
<defs>
<linearGradient id="paint0_linear_1_10" x1="100" y1="0" x2="100" y2="200" gradientUnits="userSpaceOnUse">
<stop stop-color="#0088F0"/>
<stop offset="0.486667" stop-color="#2080F1"/>
<stop offset="1" stop-color="#14A9FF"/>
</linearGradient>
<linearGradient id="paint1_linear_1_10" x1="60.2352" y1="56.4016" x2="58.1926" y2="150.929" gradientUnits="userSpaceOnUse">
<stop stop-color="#0088F0"/>
<stop offset="0.5" stop-color="#2080F1"/>
<stop offset="1" stop-color="#14A9FF"/>
</linearGradient>
<linearGradient id="paint2_linear_1_10" x1="52.3818" y1="18.7402" x2="68.0198" y2="65.4133" gradientUnits="userSpaceOnUse">
<stop stop-color="#2080F1"/>
<stop offset="1" stop-color="#14A9FF"/>
</linearGradient>
<linearGradient id="paint3_linear_1_10" x1="139.768" y1="139.143" x2="141.81" y2="44.6157" gradientUnits="userSpaceOnUse">
<stop stop-color="#0088F0"/>
<stop offset="0.5" stop-color="#2080F1"/>
<stop offset="1" stop-color="#14A9FF"/>
</linearGradient>
<linearGradient id="paint4_linear_1_10" x1="147.621" y1="176.805" x2="131.983" y2="130.131" gradientUnits="userSpaceOnUse">
<stop stop-color="#2080F1"/>
<stop offset="1" stop-color="#14A9FF"/>
</linearGradient>
</defs>
</svg>
